<?xml version="1.0"?>
<svg xmlns="http://www.w3.org/2000/svg" xmlns:xlink="http://www.w3.org/1999/xlink" version="1.1" id="Layer_1" x="0px" y="0px" viewBox="0 0 512 512" style="enable-background:new 0 0 512 512;" xml:space="preserve" width="512px" height="512px"><g><g>
	<g>
		<path d="M386.222,73.792l-9.027-11.666h0.728c5.632,0,10.199-4.567,10.199-10.199V10.199C388.122,4.567,383.555,0,377.923,0    H134.078c-5.633,0-10.199,4.567-10.199,10.199v41.727c0,5.632,4.566,10.199,10.199,10.199h0.727l-9.027,11.666    c-14.68,18.971-22.764,42.627-22.764,66.613v316.083c0,30.61,24.903,55.513,55.513,55.513h194.947    c30.61,0,55.512-24.903,55.512-55.513V140.404C408.985,116.419,400.902,92.762,386.222,73.792z M144.277,20.398h223.446v21.329    H144.277V20.398z M353.473,491.602H158.527c-19.362,0-35.115-15.752-35.115-35.115V140.404c0-19.491,6.569-38.714,18.497-54.128    l18.687-24.151h190.806l18.687,24.151c11.928,15.414,18.497,34.638,18.497,54.128v316.082h0    C388.587,475.849,372.835,491.602,353.473,491.602z" data-original="#000000" class="active-path" data-old_color="#000000" fill="#7A7A7A"/>
	</g>
</g><g>
	<g>
		<path d="M351.843,190.381H160.158c-5.633,0-10.199,4.567-10.199,10.199v119.966c0,5.632,4.566,10.199,10.199,10.199h191.685    c5.632,0,10.199-4.567,10.199-10.199V200.581C362.042,194.949,357.475,190.381,351.843,190.381z M341.644,310.347H170.357V210.78    h171.286V310.347z" data-original="#000000" class="active-path" data-old_color="#000000" fill="#7A7A7A"/>
	</g>
</g><g>
	<g>
		<path d="M311.586,249.88h-5.61c-5.632,0-10.199,4.567-10.199,10.199c0,5.632,4.567,10.199,10.199,10.199h5.61    c5.632,0,10.199-4.567,10.199-10.199C321.785,254.448,317.218,249.88,311.586,249.88z" data-original="#000000" class="active-path" data-old_color="#000000" fill="#7A7A7A"/>
	</g>
</g><g>
	<g>
		<path d="M264.159,249.88h-63.745c-5.633,0-10.199,4.567-10.199,10.199c0,5.632,4.566,10.199,10.199,10.199h63.745    c5.632,0,10.199-4.567,10.199-10.199C274.359,254.448,269.791,249.88,264.159,249.88z" data-original="#000000" class="active-path" data-old_color="#000000" fill="#7A7A7A"/>
	</g>
</g></g> </svg>
