<?xml version="1.0"?>
<svg xmlns="http://www.w3.org/2000/svg" xmlns:xlink="http://www.w3.org/1999/xlink" version="1.1" id="Capa_1" x="0px" y="0px" viewBox="0 0 469.333 469.333" style="enable-background:new 0 0 469.333 469.333;" xml:space="preserve" width="512px" height="512px" class=""><g><g>
	<g>
		<g>
			<path d="M102.26,158.216c1.813,1.198,3.854,1.771,5.875,1.771c3.458,0,6.854-1.677,8.906-4.781     c26.073-39.375,62.927-63.906,89.26-77.552c5.229-2.708,7.271-9.146,4.563-14.375c-2.708-5.229-9.146-7.313-14.375-4.563     c-28.573,14.802-68.646,41.521-97.24,84.719C96,148.341,97.344,154.966,102.26,158.216z" data-original="#000000" class="active-path" data-old_color="#000000" fill="#7A7A7A"/>
			<path d="M464.583,257.789c-2.969-1.979-6.708-2.344-10.021-0.969c-1.294,0.539-3.691,1.548-6.76,2.861     C445.656,116.514,338.77,45.022,292.479,20.831C279.51,14.06,242.167,1.883,237.958,0.518c-2.146-0.688-4.448-0.688-6.594,0     c-1.677,0.552-41.25,13.458-54.479,20.302C130.582,44.807,23.669,115.914,21.531,259.681c-3.069-1.313-5.466-2.322-6.76-2.861     c-3.323-1.385-7.052-1.01-10.021,0.969C1.781,259.768,0,263.102,0,266.664c0,60.938,22.865,202.667,234.667,202.667     s234.667-141.729,234.667-202.667C469.333,263.102,467.552,259.768,464.583,257.789z M186.698,39.758     c8.844-4.573,35.115-13.615,47.979-17.865c12.865,4.24,39.125,13.26,47.927,17.854c53.802,28.104,144.063,94.604,144.063,224.198     c0,1.669-0.107,3.406-0.182,5.121c-32.681,14.76-84.499,39.9-111.714,62.233c-9.313-30.656-32.323-91.073-74.615-116.448     c-3.375-2.021-7.604-2.021-10.979,0c-42.292,25.375-65.302,85.792-74.615,116.448c-27.216-22.335-79.035-47.473-111.717-62.234     c-0.072-1.716-0.178-3.457-0.178-5.12C42.667,133.799,132.906,67.622,186.698,39.758z M234.667,447.997     c-171.323,0-208.125-96.781-212.781-164.938c49.781,21.76,116.292,55.438,129.24,74.854c2.375,3.552,6.656,5.375,10.833,4.563     c4.198-0.781,7.521-3.99,8.458-8.156c0.188-0.885,19.438-85.083,64.25-117.542c44.812,32.458,64.062,116.656,64.25,117.542     c0.938,4.167,4.26,7.375,8.458,8.156c4.188,0.76,8.458-1.021,10.833-4.563c12.948-19.417,79.458-53.094,129.24-74.854     C442.792,351.216,405.99,447.997,234.667,447.997z" data-original="#000000" class="active-path" data-old_color="#000000" fill="#7A7A7A"/>
		</g>
	</g>
</g></g> </svg>
