<?xml version="1.0"?>
<svg xmlns="http://www.w3.org/2000/svg" viewBox="0 0 512 512" width="512px" height="512px"><g><g id="Outline"><path d="M493.657,170.343l-152-152a8,8,0,0,0-11.314,0L157.676,191.01l11.314,11.313L336,35.314,476.687,176,381.6,271.081,146.062,208.27a8.005,8.005,0,0,0-7.719,2.073l-120,120a8,8,0,0,0,0,11.314l152,152a8,8,0,0,0,11.314,0l312-312A8,8,0,0,0,493.657,170.343ZM357.109,281.109,273.55,310.952l-95.5-77.591ZM176,476.686,35.313,336,56,315.314,196.686,456Zm32-32L67.313,304l71.767-71.766,5.475-5.475,122.4,99.45a8,8,0,0,0,7.735,1.325l78.5-28.034ZM341.657,66.343a8,8,0,0,0-11.314,0l-40,40a8,8,0,0,0,0,11.314l40,40a8,8,0,0,0,11.314,0l40-40a8,8,0,0,0,0-11.314ZM336,140.687,307.313,112,336,83.313,364.687,112ZM400,224a7.974,7.974,0,0,0,5.657-2.343l40-40a8,8,0,0,0,0-11.314l-40-40a8,8,0,0,0-11.314,0l-40,40a8,8,0,0,0,0,11.314l40,40A7.974,7.974,0,0,0,400,224Zm0-76.687L428.687,176,400,204.687,371.313,176Zm-133.657-16.97-40,40a8,8,0,0,0,0,11.314l40,40a8,8,0,0,0,11.314,0l40-40a8,8,0,0,0,0-11.314l-40-40A8,8,0,0,0,266.343,130.343ZM272,204.687,243.313,176,272,147.313,300.687,176Zm90.343,37.656L364.687,240,336,211.313l-26.343,26.344-11.314-11.314,32-32a8,8,0,0,1,11.314,0l40,40a8,8,0,0,1,0,11.314l-8,8Zm-240,32,11.314,11.314-32,32L90.343,306.343Zm24-24,11.314,11.314-12.75,12.75-11.314-11.314Z" data-original="#000000" class="active-path" data-old_color="#000000" fill="#7A7A7A"/></g></g> </svg>
