<?xml version="1.0"?>
<svg xmlns="http://www.w3.org/2000/svg" height="512px" viewBox="0 -8 511.9132 511" width="512px"><g><path d="m475.53125 210.273438c-3.3125-7.253907-7.414062-14.121094-12.230469-20.480469 0-.074219-.050781-.167969-.09375-.246094-.429687-.804687-.984375-1.539063-1.644531-2.167969-.4375-.546875-.769531-1.132812-1.203125-1.707031-5.089844-6.136719-10.84375-11.691406-17.160156-16.554687 18.414062-8.464844 34.507812-21.351563 34.507812-32.128907 0-11.773437-19.328125-26.144531-39.75-34.414062 13.398438-24.53125 17.921875-53.417969 8.714844-62.445313-8.535156-8.730468-36.113281-4.933594-59.929687 7.183594-8.328126-25.316406-24.773438-46.855469-37.035157-46.855469-12.734375 0-29.40625 22.648438-37.546875 48.546875-37.136718-33.273437-86.242187-49.964844-135.960937-46.210937-106.386719 8.757812-185.0625 111.960937-175.394531 230.15625 9.191406 111.980469 96.058593 199.125 196.050781 199.113281 1.914062 0 3.851562-.101562 5.769531-.167969.128906.125.222656.273438.351562.398438 39.222657 39.527343 92.179688 62.402343 147.847657 63.855469 35.804687.320312 70.628906-11.699219 98.609375-34.039063 35.277344-28.191406 57.613281-69.484375 61.894531-114.441406 4.386719-52.75-16.699219-103.25-35.304687-136.589844-.125-.292969-.339844-.53125-.492188-.804687zm-275.074219 189.304687c-20.886719-25.363281-26.714843-61.378906-15.964843-98.75 11.632812-36.988281 34.066406-69.652344 64.417968-93.789063 32.632813-28.027343 73.824219-44.132812 116.8125-45.679687 31.085938-1.21875 61.042969 11.734375 81.453125 35.210937 42.007813 51.046876 20.726563 135.628907-48.445312 192.554688-32.640625 28.023438-73.828125 44.128906-116.820313 45.679688-31.089844 1.214843-61.046875-11.742188-81.453125-35.226563zm259.644531-262.589844c-9.570312 9.941407-21.609374 17.160157-34.882812 20.925781-9.492188-4.820312-19.574219-8.375-29.988281-10.574218 8.746093-5.761719 16.871093-12.410156 24.253906-19.839844 3.191406-3.234375 6.164063-6.675781 8.898437-10.308594 12.082032 3.800782 22.996094 10.613282 31.71875 19.796875zm-25.914062-84.476562c.066406 17.910156-5.566406 35.375-16.078125 49.875-3.121094 4.679687-6.703125 9.035156-10.691406 13.003906-7.621094 7.679687-16.152344 14.394531-25.40625 19.996094 4.28125-9.75 7.195312-20.046875 8.65625-30.59375 1.136719-7.703125 1.707031-15.480469 1.703125-23.269531-.050782-5.679688-.5625-11.347657-1.535156-16.949219 13.042968-7.984375 28.058593-12.164063 43.351562-12.0625zm-84.480469-34.433594c12.148438 11.914063 20.332031 27.285156 23.433594 44.015625 1.445313 6.375 2.171875 12.890625 2.164063 19.429688-.003907 6.953124-.515626 13.894531-1.535157 20.769531-1.125 8.035156-3.195312 15.910156-6.167969 23.457031-10.039062-23.25-24.027343-44.589844-41.34375-63.066406 3.035157-16.929688 11.226563-32.507813 23.449219-44.605469zm-331.886719 213.476563c-8.902343-108.816407 62.777344-203.792969 159.777344-211.753907 77.808594-6.355469 149.855469 44.585938 179.257813 124.929688-43.753907 3.566406-85.296875 20.738281-118.800781 49.109375-33.007813 26.335937-57.378907 61.949218-69.972657 102.253906-11.65625 35.710938-6.695312 74.765625 13.515625 106.429688.085938.175781.078125.375.171875.542968 1.144531 2.082032 2.390625 4.164063 3.523438 5.976563 1.28125 2.054687 2.5625 3.863281 3.910156 5.765625-87.816406-4.417969-163.15625-82.992188-171.382813-183.253906zm476.5 114.707031c-3.855468 40.269531-23.886718 77.253906-55.507812 102.484375-55.40625 44.042968-131.335938 34.988281-188.179688-.402344 10.261719 2.332031 20.753907 3.507812 31.277344 3.507812 46.949219-1.5625 91.96875-19.042968 127.675782-49.570312 44.535156-36.691406 70.550781-84.171875 75.1875-129.03125 7.914062 23.480469 11.15625 48.285156 9.546874 73.011719zm0 0" data-original="#000000" class="active-path" data-old_color="#000000" fill="#E18318"/><path d="m178.597656 137.144531c0-14.4375-15.089844-25.753906-34.355468-25.753906-19.269532 0-34.324219 11.316406-34.324219 25.753906s15.089843 25.742188 34.355469 25.742188c19.269531 0 34.324218-11.3125 34.324218-25.742188zm-34.355468 8.675781c-10.558594 0-17.289063-5.117187-17.289063-8.675781 0-3.558593 6.730469-8.6875 17.289063-8.6875 10.554687 0 17.285156 5.121094 17.285156 8.6875 0 3.566407-6.730469 8.675781-17.285156 8.675781zm0 0" data-original="#000000" class="active-path" data-old_color="#000000" fill="#E18318"/><path d="m195.664062 130.941406c0 14.4375 15.09375 25.753906 34.355469 25.753906 19.257813 0 34.351563-11.316406 34.351563-25.753906 0-14.441406-15.09375-25.746094-34.351563-25.746094-19.261719 0-34.355469 11.316407-34.355469 25.746094zm34.355469-8.679687c10.554688 0 17.285157 5.121093 17.285157 8.679687s-6.730469 8.683594-17.285157 8.683594c-10.558593 0-17.289062-5.117188-17.289062-8.683594 0-3.570312 6.730469-8.679687 17.289062-8.679687zm0 0" data-original="#000000" class="active-path" data-old_color="#000000" fill="#E18318"/><path d="m180.335938 105.042969c19.269531 0 34.363281-11.308594 34.363281-25.746094s-15.09375-25.746094-34.363281-25.746094c-19.269532 0-34.355469 11.308594-34.355469 25.746094s15.140625 25.746094 34.355469 25.746094zm0-34.425781c10.566406 0 17.296874 5.121093 17.296874 8.679687s-6.730468 8.675781-17.296874 8.675781c-10.5625 0-17.289063-5.117187-17.289063-8.675781s6.734375-8.679687 17.289063-8.679687zm0 0" data-original="#000000" class="active-path" data-old_color="#000000" fill="#E18318"/><path d="m60.230469 233.289062c-.519531-4.683593-4.742188-8.058593-9.425781-7.539062-4.683594.519531-8.058594 4.738281-7.539063 9.425781 8.953125 80.492188 61.753906 116.554688 64 118.046875 2.535156 1.695313 5.785156 1.90625 8.519531.558594 2.734375-1.351562 4.542969-4.058594 4.738282-7.101562.199218-3.042969-1.242188-5.960938-3.777344-7.65625-.496094-.3125-48.445313-33.074219-56.515625-105.734376zm0 0" data-original="#000000" class="active-path" data-old_color="#000000" fill="#E18318"/><path d="m60.359375 173.90625c4.710937 0 8.53125-3.820312 8.53125-8.535156 0-37.382813 21.027344-52.460938 22.066406-53.179688 3.914063-2.625 4.957031-7.929687 2.332031-11.84375-2.628906-3.914062-7.929687-4.957031-11.84375-2.328125-1.214843.851563-29.621093 20.289063-29.621093 67.351563 0 4.714844 3.820312 8.535156 8.535156 8.535156zm0 0" data-original="#000000" class="active-path" data-old_color="#000000" fill="#E18318"/><path d="m242.851562 409.835938c12.398438 5.039062 25.675782 7.554687 39.058594 7.398437 38.964844-1.414063 76.285156-16.0625 105.8125-41.53125 12.023438-9.890625 22.820313-21.183594 32.160156-33.640625.308594-.261719.59375-.546875.855469-.851562.109375-.171876.109375-.359376.203125-.539063 33.613282-45.695313 40.578125-99.429687 12.902344-133.121094-35.222656-42.808593-113.226562-37.050781-173.847656 12.800781-60.621094 49.851563-81.296875 125.3125-46.082032 168.105469 7.742188 9.296875 17.625 16.570313 28.800782 21.199219zm133.972657-47.308594c-39.398438 32.425781-86.304688 44.542968-119.945313 34.394531 6.265625-15.589844 29.824219-36.46875 67.253906-49.824219 28.363282-10.121094 57.367188-12.550781 75.542969-7.074218-6.9375 8.152343-14.574219 15.683593-22.824219 22.503906zm-149.785157 15.171875c-29.226562-35.542969-9.597656-100.183594 43.734376-144.09375 26.464843-23.011719 59.941406-36.386719 94.976562-37.949219 20.785156-1.109375 40.957031 7.269531 54.84375 22.777344 21.808594 26.511718 16.410156 69.203125-9.875 107.417968-21.980469-9.191406-56.890625-7.460937-92.296875 5.167969-38.757813 13.832031-67.8125 36.5-77.082031 58.964844-5.417969-3.269531-10.25-7.421875-14.300782-12.285156zm0 0" data-original="#000000" class="active-path" data-old_color="#000000" fill="#E18318"/></g> </svg>
