<?xml version="1.0"?>
<svg xmlns="http://www.w3.org/2000/svg" xmlns:xlink="http://www.w3.org/1999/xlink" version="1.1" id="Capa_1" x="0px" y="0px" viewBox="0 0 313.701 313.701" style="enable-background:new 0 0 313.701 313.701;" xml:space="preserve" width="512px" height="512px" class=""><g><g>
	<g>
		<g>
			<path d="M66.447,195.369c-4.143,0-7.5-3.357-7.5-7.5c0-38.631,21.936-73.041,53.347-83.678c3.919-1.33,8.18,0.774,9.509,4.698     c1.329,3.923-0.774,8.181-4.697,9.509c-25.411,8.605-43.158,37.173-43.158,69.471C73.947,192.012,70.59,195.369,66.447,195.369z" data-original="#000000" class="active-path" data-old_color="#000000" fill="#7A7A7A"/>
		</g>
		<path d="M180.957,68.72c-5.58,0-11.133,0.547-16.603,1.597V26.57c0-6.38,5.189-11.57,11.568-11.57c4.143,0,7.5-3.357,7.5-7.5    c0-4.142-3.357-7.5-7.5-7.5c-14.649,0-26.568,11.919-26.568,26.57v43.75c-5.409-1.043-10.955-1.601-16.609-1.601    c-56.975,0-103.326,54.949-103.326,122.491c0,67.541,46.352,122.49,103.326,122.49c8.29,0,16.352-1.171,24.082-3.367    c7.866,2.227,15.971,3.367,24.131,3.367c56.975,0,103.326-54.949,103.326-122.49C284.283,123.669,237.932,68.72,180.957,68.72z     M132.744,298.701c-48.703,0-88.326-48.22-88.326-107.49S84.041,83.72,132.744,83.72s88.326,48.221,88.326,107.491    S181.447,298.701,132.744,298.701z M182.279,298.681c32.028-20.829,53.791-61.192,53.791-107.47    c0-46.278-21.763-86.641-53.791-107.471c48.095,0.863,87.004,48.738,87.004,107.471S230.374,297.816,182.279,298.681z" data-original="#000000" class="active-path" data-old_color="#000000" fill="#7A7A7A"/>
	</g>
</g></g> </svg>
